# xmcd
#
# Track frame offsets:
#	150
#	4571
#	19283
#	27492
#	36203
#	40583
#	66831
#	80411
#	98717
#	124843
#	153739
#	183632
#	203199
#	218240
#	227827
#	234094
#	256798
#	279056
#	304253
#	320658
#	344367
#
# Disc length: 4703 seconds
#
# Revision: 0
# Processed by: cddbd v1.5.2PL0 Copyright (c) Steve Scherf et al.
# Submitted via: EasyCDDAExtractor 2011.3.0.0
#
DISCID=1d125d15
DTITLE=Alexandr Nevskij - Боже, услыши молитву мою
DYEAR=2009
DGENRE=Vocal
TTITLE0=Zvon k vechernej sluzhbe
TTITLE1=Velichanie Svyatomu Bogoyavleniyu
TTITLE2=Xristos Voskrese
TTITLE3=Dostojno est`
TTITLE4=Zvon k Vsenoshnomu bdeniyu
TTITLE5=Sugubaya ekteniya
TTITLE6=Nyne otpushanishi
TTITLE7=Polielej
TTITLE8=Velikoe slavoclovie
TTITLE9=Spasi, Bozhe
TTITLE10=Da isprevitsya molitva moya
TTITLE11=Blazhen muzh
TTITLE12=Sovet prevechnyj
TTITLE13=Mnogoetie
TTITLE14=Zvon k voskresnoj liturgii
TTITLE15=Monastyr`
TTITLE16=Ikona
TTITLE17=Ne dlya menya
TTITLE18=Greshnyj cheloveche
TTITLE19=Kolokol`nyj zvon
TTITLE20=Prazdnichnyj zvon k vkskresnoj sluzhbe
EXTD=
EXTT0=
EXTT1=
EXTT2=
EXTT3=
EXTT4=
EXTT5=
EXTT6=
EXTT7=
EXTT8=
EXTT9=
EXTT10=
EXTT11=
EXTT12=
EXTT13=
EXTT14=
EXTT15=
EXTT16=
EXTT17=
EXTT18=
EXTT19=
EXTT20=
PLAYORDER=
